<svg width="72" height="36" viewBox="0 0 72 36" fill="none" xmlns="http://www.w3.org/2000/svg">
<path id="O" fill-rule="evenodd" clip-rule="evenodd" d="M5.28182 35.8582H66.6964C69.4773 35.8582 71.7299 33.6927 71.7299 31.0422V4.8184C71.7299 2.17056 69.4773 0.00244141 66.6964 0.00244141H5.28182C2.50087 0.00244141 0.248291 2.17056 0.248291 4.8184V31.0422C0.251072 33.6927 2.50087 35.8582 5.28182 35.8582ZM9.18627 6.95972H63.0728C63.9961 6.95972 64.7497 7.68332 64.7497 8.56504V27.2982C64.7497 28.18 63.9961 28.9036 63.0728 28.9036H9.18627C8.263 28.9036 7.50936 28.18 7.50936 27.2982V8.56504C7.50936 7.68064 8.263 6.95972 9.18627 6.95972Z" fill="black"/>
</svg>
