<svg width="68" height="36" viewBox="0 0 68 36" fill="none" xmlns="http://www.w3.org/2000/svg">
<path id="S" fill-rule="evenodd" clip-rule="evenodd" d="M7.80633 10.1706V8.5626C7.80633 7.68088 8.55996 6.95728 9.48045 6.95728H67.2798C67.4744 6.95728 67.6635 6.99212 67.836 7.05108V0H5.576C2.79505 0 0.54248 2.16812 0.54248 4.81596V6.95728V10.1679V16.5892C0.54248 19.237 2.79505 21.4052 5.576 21.4052H10.8765V21.4963C11.0517 21.44 11.238 21.4052 11.4327 21.4052H58.898C59.8213 21.4052 60.5749 22.1288 60.5749 23.0132V25.6878V27.2958C60.5749 28.1775 59.8213 28.9011 58.898 28.9011H1.10146C0.906796 28.9011 0.71768 28.869 0.54248 28.81V35.8584H62.8024C65.5834 35.8584 67.836 33.6903 67.836 31.0424V28.9011V25.6905V19.2692C67.836 16.6187 65.5834 14.4506 62.8024 14.4506H57.5075V14.3594C57.3295 14.4184 57.1432 14.4506 56.9458 14.4506H9.47767C8.55718 14.4506 7.80355 13.727 7.80355 12.8426L7.80633 10.1706Z" fill="black"/>
</svg>
